<?xml version="1.0" encoding="utf-8"?>
<!-- Generator: Adobe Illustrator 25.4.5, SVG Export Plug-In . SVG Version: 6.00 Build 0)  -->
<svg version="1.1" xmlns="http://www.w3.org/2000/svg" xmlns:xlink="http://www.w3.org/1999/xlink" x="0px" y="0px"
	 viewBox="0 0 72 72" style="enable-background:new 0 0 72 72;" xml:space="preserve">
<style type="text/css">
	.st0{fill:#FFFFFF;}
</style>
<g id="Layer_2">
	<path class="st0" d="M51.15,60H20.85C15.98,60,12,56.02,12,51.15V20.85c0-4.87,3.98-8.85,8.85-8.85h30.29
		c4.87,0,8.85,3.98,8.85,8.85v30.29C60,56.02,56.02,60,51.15,60z"/>
	<path class="st0" d="M51.15,12H20.85C15.98,12,12,15.98,12,20.85v30.29c0,4.87,3.98,8.85,8.85,8.85h30.29
		c4.87,0,8.85-3.98,8.85-8.85V20.85C60,15.98,56.02,12,51.15,12z M55.39,51.84c0,1.87-1.53,3.4-3.4,3.4H20.23
		c-1.87,0-3.4-1.53-3.4-3.4V20.09c0-1.87,1.53-3.4,3.4-3.4h31.75c1.87,0,3.4,1.53,3.4,3.4V51.84z"/>
</g>
<g id="Layer_3">
	<circle class="st0" cx="27" cy="26.91" r="2.9"/>
	<circle class="st0" cx="45.01" cy="26.91" r="2.9"/>
	<circle class="st0" cx="27" cy="44.93" r="2.9"/>
	<circle class="st0" cx="45.01" cy="44.93" r="2.9"/>
</g>
</svg>
