<?xml version="1.0" encoding="utf-8"?>
<!-- Generator: Adobe Illustrator 25.4.5, SVG Export Plug-In . SVG Version: 6.00 Build 0)  -->
<svg version="1.1" id="Layer_1_xA0_Image_00000139987061083103197020000014051131282759656123_"
	 xmlns="http://www.w3.org/2000/svg" xmlns:xlink="http://www.w3.org/1999/xlink" x="0px" y="0px" viewBox="0 0 72 72"
	 style="enable-background:new 0 0 72 72;" xml:space="preserve">
<style type="text/css">
	.st0{fill:#FFFFFF;}
</style>
<path class="st0" d="M38.06,12.08c1.26-0.43,3.23,0.36,3.24,1.95c0.03,5.24,2.91,8.88,6.47,12.21c2.82,2.64,5.57,5.49,7.37,8.94
	c4.59,8.77,0.26,19.86-9.08,22.98c-4.78,1.6-9.71,2-14.63,0.98c-7.54-1.57-13.33-5.66-15.35-13.36c-2.04-7.76,0.5-14.63,5.79-20.5
	c0.82-0.91,1.81-1.76,3.25-1.18c1.36,0.55,1.35,1.72,1.45,2.93c0.26,3.04,1.66,5.53,3.91,7.55c0.21,0.19,0.52,0.27,0.78,0.39
	c0.02-0.29,0.1-0.58,0.07-0.86c-0.21-1.9-0.68-3.8-0.63-5.69c0.09-3.13,0.71-6.24,2-9.1c0.66-1.45,1.48-2.83,2.43-4.11
	c0.59-0.78,1.11-1.63,1.81-2.32C37.27,12.59,37.62,12.23,38.06,12.08z M37.01,55.2c1.22-0.12,2.82-0.22,4.41-0.45
	c9.57-1.44,12.15-8.51,10.72-15.62c-0.68-3.38-3.29-5.58-5.62-7.87c-3.17-3.12-6.51-6.1-8.3-10.33c-0.16-0.37-0.45-0.68-0.67-1.01
	c-0.22,0.36-0.49,0.7-0.65,1.08c-2.51,5.76-2.39,11.37,0.82,16.88c0.45,0.77,0.6,2.12,0.21,2.83c-0.34,0.62-1.7,1.11-2.5,0.97
	c-1.67-0.28-3.37-0.8-4.86-1.6c-3.25-1.73-5.61-4.4-7.17-7.76c-0.14-0.29-0.31-1.57-0.92-0.38c-2.3,4.52-3.83,9.26-1.56,14.2
	C23.96,52.8,29.73,55.03,37.01,55.2z"/>
</svg>
