<?xml version="1.0" standalone="no"?>
<!DOCTYPE svg PUBLIC "-//W3C//DTD SVG 20010904//EN"
 "http://www.w3.org/TR/2001/REC-SVG-20010904/DTD/svg10.dtd">
<svg version="1.0" xmlns="http://www.w3.org/2000/svg"
 width="542.000000pt" height="233.000000pt" viewBox="0 0 542.000000 233.000000"
 preserveAspectRatio="xMidYMid meet">

<g transform="translate(0.000000,233.000000) scale(0.100000,-0.100000)"
fill="#000000" stroke="none">
<path d="M0 1165 l0 -1165 2710 0 2710 0 0 1165 0 1165 -2710 0 -2710 0 0
-1165z m2470 1082 c0 -2 -17 -19 -37 -38 l-38 -34 34 38 c33 34 41 42 41 34z
m-170 -170 c0 -2 -15 -16 -32 -33 l-33 -29 29 33 c28 30 36 37 36 29z m691
-253 c13 -15 38 -35 54 -45 21 -13 25 -19 13 -19 -10 0 -18 -5 -18 -11 0 -5
90 -101 200 -213 l199 -202 -257 -257 -257 -257 -15 29 c-8 16 -21 39 -29 52
-12 21 -10 20 18 -5 l31 -30 225 224 c124 124 225 232 225 241 0 10 -84 104
-187 209 -145 148 -183 194 -172 201 12 7 12 9 -1 9 -9 0 -24 -6 -35 -14 -11
-7 -35 -17 -52 -21 -18 -3 -33 -12 -33 -20 0 -7 -13 -15 -28 -18 -20 -4 -34
-17 -50 -50 -21 -42 -49 -75 -55 -66 -2 2 -11 16 -20 32 -10 15 -25 27 -35 26
-13 0 -11 -3 6 -9 26 -11 28 -30 8 -69 -32 -60 -70 -62 -101 -4 -12 21 -21 30
-24 22 -2 -8 -9 -18 -15 -22 -7 -6 -5 -7 5 -4 11 4 21 -4 30 -19 12 -22 10
-28 -22 -62 -19 -20 -45 -58 -58 -84 -12 -27 -27 -48 -32 -48 -5 0 -20 22 -32
50 -21 48 -39 61 -52 40 -3 -5 -2 -10 3 -10 5 0 22 -18 37 -40 26 -38 27 -41
11 -65 -9 -14 -22 -23 -28 -19 -6 4 -8 3 -5 -3 4 -6 -1 -28 -10 -49 l-16 -39
-12 58 c-10 49 -19 65 -59 104 -56 54 -57 78 -4 105 20 11 44 30 52 44 9 13
23 24 32 24 20 0 94 38 94 49 0 10 45 31 66 31 8 0 30 11 47 24 18 14 43 30
57 36 41 18 69 36 93 58 13 12 38 27 57 33 42 14 67 35 86 71 18 35 34 35 65
2z m-2658 -1375 c22 -6 54 -25 73 -42 l35 -32 -46 -38 -45 -38 -26 20 c-39 31
-104 28 -135 -5 -34 -36 -34 -112 0 -148 31 -33 96 -36 135 -5 l26 20 45 -38
46 -38 -35 -32 c-84 -77 -238 -71 -323 13 -59 59 -77 138 -52 228 13 47 82
118 129 133 46 14 125 16 173 2z m958 -17 c34 -17 65 -44 84 -71 27 -39 30
-50 30 -121 0 -71 -3 -82 -30 -121 -19 -27 -50 -54 -84 -71 -109 -57 -248 -26
-316 71 -27 39 -30 50 -30 121 0 71 3 82 30 121 43 62 119 99 200 99 49 0 74
-6 116 -28z m472 17 c22 -6 54 -25 73 -42 l35 -32 -46 -38 -45 -38 -26 20
c-17 14 -41 21 -69 21 -59 0 -90 -34 -90 -100 0 -66 31 -100 90 -100 28 0 52
7 69 21 l26 20 45 -38 46 -38 -35 -32 c-84 -77 -238 -71 -323 13 -59 59 -77
138 -52 228 13 47 82 118 129 133 46 14 125 16 173 2z m468 -17 c34 -17 65
-44 84 -71 27 -39 30 -50 30 -121 0 -71 -3 -82 -30 -121 -93 -132 -307 -132
-400 0 -27 39 -30 50 -30 121 0 71 3 82 30 121 43 62 119 99 200 99 49 0 74
-6 116 -28z m2682 17 c22 -6 54 -25 73 -42 l35 -32 -46 -38 -45 -38 -26 20
c-17 14 -41 21 -69 21 -59 0 -90 -34 -90 -100 0 -66 31 -100 90 -100 28 0 52
7 69 21 l26 20 45 -38 46 -38 -35 -32 c-84 -77 -238 -71 -323 13 -85 86 -85
222 0 308 23 23 58 47 77 53 46 14 125 16 173 2z m-4303 -74 l0 -75 65 0 65 0
0 75 0 75 70 0 70 0 0 -210 0 -210 -70 0 -70 0 0 75 0 75 -65 0 -65 0 0 -75 0
-75 -70 0 -70 0 0 210 0 210 70 0 70 0 0 -75z m2310 20 l0 -55 -100 0 -100 0
0 -35 0 -35 91 0 90 0 -3 -52 -3 -53 -87 -3 -88 -3 0 -64 0 -65 -70 0 -70 0 0
210 0 210 170 0 170 0 0 -55z m180 -155 l0 -210 -70 0 -70 0 0 210 0 210 70 0
70 0 0 -210z m267 119 l78 -92 3 92 3 91 69 0 70 0 0 -210 0 -210 -60 0 -60 0
-77 91 -78 92 -3 -92 -3 -91 -69 0 -70 0 0 210 0 210 60 0 60 0 77 -91z m654
-114 c49 -110 88 -203 88 -207 1 -5 -32 -8 -72 -8 l-73 0 -13 35 -12 35 -79 0
-79 0 -12 -35 -13 -35 -74 0 c-56 0 -73 3 -69 13 3 6 38 86 77 177 40 91 79
180 86 198 l15 33 71 -3 72 -3 87 -200z m306 114 l78 -92 3 92 3 91 69 0 70 0
0 -210 0 -210 -60 0 -60 0 -77 91 -78 92 -3 -92 -3 -91 -69 0 -70 0 0 210 0
210 60 0 60 0 77 -91z m1063 36 l0 -55 -100 0 -100 0 0 -25 c0 -25 1 -25 90
-25 l90 0 0 -50 0 -50 -90 0 c-89 0 -90 0 -90 -25 l0 -25 105 0 105 0 0 -55 0
-55 -175 0 -175 0 0 210 0 210 170 0 170 0 0 -55z"/>
<path d="M2891 1749 c-13 -5 -22 -11 -20 -14 8 -7 49 7 49 16 0 5 -1 9 -2 8
-2 0 -14 -5 -27 -10z"/>
<path d="M2815 1710 c3 -5 13 -10 21 -10 8 0 12 5 9 10 -3 6 -13 10 -21 10 -8
0 -12 -4 -9 -10z"/>
<path d="M2320 1405 c0 -2 10 -10 23 -16 20 -11 21 -11 8 4 -13 16 -31 23 -31
12z"/>
<path d="M2375 1370 c-3 -5 1 -10 10 -10 9 0 13 5 10 10 -3 6 -8 10 -10 10 -2
0 -7 -4 -10 -10z"/>
<path d="M2955 880 c-27 -30 -12 -34 15 -5 13 14 19 25 13 25 -5 0 -18 -9 -28
-20z"/>
<path d="M1109 314 c-19 -20 -24 -37 -24 -74 0 -66 31 -100 90 -100 59 0 90
34 90 100 0 66 -31 100 -90 100 -32 0 -47 -6 -66 -26z"/>
<path d="M2049 314 c-19 -20 -24 -37 -24 -74 0 -66 31 -100 90 -100 59 0 90
34 90 100 0 66 -31 100 -90 100 -32 0 -47 -6 -66 -26z"/>
<path d="M3838 245 l-17 -45 39 0 39 0 -17 45 c-9 25 -19 45 -22 45 -3 0 -13
-20 -22 -45z"/>
</g>
</svg>
