<?xml version="1.0" encoding="utf-8"?>
<!-- Generator: Adobe Illustrator 25.4.5, SVG Export Plug-In . SVG Version: 6.00 Build 0)  -->
<svg version="1.1" id="Layer_2" xmlns="http://www.w3.org/2000/svg" xmlns:xlink="http://www.w3.org/1999/xlink" x="0px" y="0px"
	 viewBox="0 0 72 72" style="enable-background:new 0 0 72 72;" xml:space="preserve">
<style type="text/css">
	.st0{fill:#FFFFFF;}
</style>
<path class="st0" d="M51.15,12H20.85C15.98,12,12,15.98,12,20.85v30.29c0,4.87,3.98,8.85,8.85,8.85h30.29
	c4.87,0,8.85-3.98,8.85-8.85V20.85C60,15.98,56.02,12,51.15,12z M51.98,16.68c1.87,0,3.4,1.53,3.4,3.4V34H38.52V16.68H51.98z
	 M20.23,16.68h13.46V34H16.83V20.09C16.83,18.22,18.36,16.68,20.23,16.68z M20.23,55.25c-1.87,0-3.4-1.53-3.4-3.4V38.82h16.87v16.42
	H20.23z M51.98,55.25H38.52V38.82h16.87v13.02C55.39,53.71,53.86,55.25,51.98,55.25z"/>
</svg>
