<?xml version="1.0" encoding="utf-8"?>
<!-- Generator: Adobe Illustrator 25.4.5, SVG Export Plug-In . SVG Version: 6.00 Build 0)  -->
<svg version="1.1" id="Layer_2" xmlns="http://www.w3.org/2000/svg" xmlns:xlink="http://www.w3.org/1999/xlink" x="100px" y="100px"
	 viewBox="0 0 72 72" style="enable-background:new 0 0 72 72;" xml:space="preserve">
<style type="text/css">
	.st0{fill:#FFFFFF;}
</style>
<path class="st0" d="M51.15,12H20.85C15.98,12,12,15.98,12,20.85v30.29c0,4.87,3.98,8.85,8.85,8.85h30.29
	c4.87,0,8.85-3.98,8.85-8.85V20.85C60,15.98,56.02,12,51.15,12z M55.39,51.84c0,1.87-1.53,3.4-3.4,3.4H20.23
	c-1.87,0-3.4-1.53-3.4-3.4V20.09c0-1.87,1.53-3.4,3.4-3.4h31.75c1.87,0,3.4,1.53,3.4,3.4V51.84z"/>
<path class="st0" d="M21.06,25.58v2.78v1.09v4.25c0,1.26,1.03,2.3,2.3,2.3h25.28c1.26,0,2.3-1.03,2.3-2.3v-5.34v-2.78
	C34.81,15.55,21.06,25.58,21.06,25.58z M46.7,31.71H25.52v-4.16c9.96-4.44,21.18,0,21.18,0V31.71z"/>
</svg>
